<svg xmlns="http://www.w3.org/2000/svg" width="248" height="85"><g fill="none" fill-rule="evenodd"><path fill="#3F9E11" d="M0 0h85v85H0z"/><path d="M20.972 62.743c0-1.193-1.215-1.596-1.927-1.596-.713 0-1.93.403-1.93 1.596v6.494c0 1.193 1.217 1.596 1.93 1.596.712 0 1.927-.403 1.927-1.596v-6.494zm3.117-.242v6.977c0 2.064-1.6 4.493-5.045 4.503C15.6 73.97 14 71.54 14 69.477V62.5c0-2.06 1.6-4.49 5.045-4.5 3.444.01 5.044 2.44 5.044 4.5zm16.755 11.194V67.62h4.78v-3.113h-4.758v-3.092h5.52v-3.133h-8.65v15.413m12.84-5.753h2.513l-1.246-4.85-1.268 4.85zm3.29 3.022h-4.054l-.714 2.73h-3.12l3.997-15.412h3.635l4.062 15.413h-3.106l-.7-2.73zm13.828-12.682l-2.743 5.93-2.78-5.93h-3.19v15.413h3.045v-8.768l1.957 4.1h1.945l1.957-4.087v8.755h3.045V58.282m-38.736 7.696l3.968-7.696h-3.6l-2.17 4.488-2.17-4.488h-3.6l3.966 7.696-3.99 7.717h3.642l2.15-4.478 2.152 4.478h3.642M51.185 25.26a.203.203 0 0 0-.205-.203h-3.65c-.112 0-.192.09-.205.203-.295 2.006-2.044 3.823-4.132 3.823-2.086 0-3.793-1.817-4.09-3.823-.01-.118-.09-.203-.205-.203h-3.65c-.11 0-.203.09-.203.203.21 2.84 1.85 5.548 4.218 6.848-2.483 1.36-4.185 3.712-4.26 6.725 0 .114.092.205.206.205h3.627c.113 0 .206-.09.206-.205.107-2.2 1.924-3.697 4.15-3.697 2.23 0 4.048 1.497 4.154 3.697 0 .114.092.205.204.205h3.63c.114 0 .205-.09.205-.205-.074-3.013-1.777-5.364-4.26-6.725 2.368-1.3 4.05-4.01 4.26-6.848zm-12.592-1.248c.113 0 .193-.09.204-.205.297-2.004 2.116-3.04 4.203-3.04 2.086 0 3.724 1.036 4.02 3.04.014.112.105.205.217.205h3.636a.205.205 0 0 0 .205-.205c-.313-4.238-3.76-7.074-8.078-7.074-4.32 0-7.947 2.836-8.26 7.074 0 .113.09.205.203.205h3.65zM63 29c0 11.046-8.954 20-20 20s-20-8.954-20-20S31.954 9 43 9s20 8.954 20 20" fill="#FFF"/><path fill="#0093DC" d="M94.66 6.33a5.717 5.717 0 0 1 1.578-3.92 5.64 5.64 0 0 1 1.74-1.24 5.138 5.138 0 0 1 2.19-.464c.897 0 1.708.17 2.43.505.01 0 .075.027.195.078.12.052.263.122.432.213.168.09.348.203.538.338.19.134.362.287.513.457l-2.058 2.278a.962.962 0 0 0-.275-.172 2.21 2.21 0 0 0-.414-.134 6.193 6.193 0 0 0-.466-.088 2.495 2.495 0 0 0-1.325.129 2.62 2.62 0 0 0-.803.472c-.24.205-.437.458-.594.758-.156.3-.234.64-.234 1.022 0 .42.125.824.376 1.212.252.388.646.692 1.183.912.268.112.534.17.797.17.25 0 .514-.03.795-.086.28-.056.536-.147.765-.274a.998.998 0 0 0 .293-.194c.083-.08.15-.158.198-.23.03-.04.057-.08.084-.118a.717.717 0 0 0 .07-.132l-1.934-.256V5.474h4.9l.286 1.304c-.02.59-.13 1.144-.33 1.66-.2.514-.49 1.072-.87 1.672l-.946.945a5.19 5.19 0 0 1-1.582.788 6.08 6.08 0 0 1-1.758.26c-.63 0-1.245-.1-1.846-.3-.6-.2-1.157-.5-1.67-.902L95.86 9.84a5.172 5.172 0 0 1-.893-1.64 5.896 5.896 0 0 1-.308-1.87zm12.626 5.714V1.08h3.164c.57 0 1.107.11 1.608.33a4.217 4.217 0 0 1 2.2 2.207c.22.5.33 1.034.33 1.6 0 .47-.072.913-.216 1.33a4.16 4.16 0 0 1-.604 1.146l2.124 4.08-3.07.454-1.456-2.96c-.142.03-.287.056-.436.078-.15.022-.304.033-.465.033v2.666h-3.18zm8.562-5.757c0-1.07.29-2.07.872-3.003l1.714-1.706c.44-.26.898-.452 1.377-.58.48-.126.965-.19 1.458-.19.86 0 1.637.163 2.333.488.697.324 1.29.754 1.777 1.29.488.533.865 1.14 1.132 1.815.265.677.398 1.36.398 2.048 0 .63-.1 1.245-.3 1.846-.2.6-.51 1.162-.93 1.685l-.93.907a5.41 5.41 0 0 1-1.568.783 5.647 5.647 0 0 1-3.479-.036 5.56 5.56 0 0 1-1.64-.88l-1.04-1.032a5.607 5.607 0 0 1-.88-1.64 5.68 5.68 0 0 1-.292-1.795zm3.377.22c0 .307.06.59.18.846s.276.477.47.663a2.109 2.109 0 0 0 1.437.578c.37 0 .725-.1 1.062-.3l.74-.732c.2-.342.3-.7.3-1.07 0-.278-.057-.544-.172-.798a2.144 2.144 0 0 0-.458-.66 2.17 2.17 0 0 0-.67-.442 2.013 2.013 0 0 0-.802-.165c-.288 0-.558.055-.81.165a2.14 2.14 0 0 0-1.112 1.116 1.99 1.99 0 0 0-.165.8zm8.598-5.01h3.18l.63 7.354 1.632-7.353h2.988l1.56 6.636.616-6.87 2.862.146-1.062 10.53-4.306-.043-1.29-5.537-1.01 5.457-4.71.05-1.09-10.37zm14.378 8.987l2.088-1.333c.02.05.06.122.125.217.063.095.15.19.263.286.113.095.243.18.392.256.15.075.324.112.524.112a.78.78 0 0 0 .622-.293.968.968 0 0 0 .25-.638c0-.45-.367-.796-1.1-1.04a5.153 5.153 0 0 1-1.036-.487 4.635 4.635 0 0 1-.838-.663 7.474 7.474 0 0 1-.392-.42 2.416 2.416 0 0 1-.531-1.03 3.19 3.19 0 0 1-.08-.77c0-.238.02-.49.065-.757.044-.266.127-.53.25-.79a3.658 3.658 0 0 1 1.244-1.47c.298-.21.64-.39 1.026-.542.386-.152.874-.228 1.465-.228.542 0 1.014.09 1.417.27.403.182.72.373.956.573l.564.614-1.736 1.663a.464.464 0 0 0-.172-.17 3.12 3.12 0 0 0-.286-.156 1.925 1.925 0 0 0-.322-.12 1.208 1.208 0 0 0-.32-.044c-.32 0-.564.085-.728.256a.824.824 0 0 0-.245.586c0 .342.176.625.527.85.088.058.198.11.33.157s.266.11.403.187c.14.078.3.164.476.256.177.093.362.193.558.3.45.23.782.476 1 .737.217.26.39.56.516.897.058.17.113.342.164.513.052.17.077.356.077.556 0 .392-.042.754-.128 1.09-.085.333-.2.64-.348.918a3.01 3.01 0 0 1-.605.766c-.25.23-.53.43-.83.593-.304.163-.624.29-.96.38a3.864 3.864 0 0 1-1.674.078 4.717 4.717 0 0 1-1.274-.407 4.728 4.728 0 0 1-.51-.282 3.497 3.497 0 0 1-1.185-1.472zm11.74-9.287h3.62l2.028 6.496 2.007-6.342h3.047l-3.618 10.68-3.464.153-3.62-10.986zm11.933.44l6.342-.125.06 2.57-3.004.06-.028 1.5 3.15.015v2.76h-3.15v1.35l3.12-.09.066 2.396-6.526.154-.03-10.59zm8.24 4.694a5.717 5.717 0 0 1 1.578-3.92 5.64 5.64 0 0 1 1.74-1.24 5.15 5.15 0 0 1 2.19-.464c.9 0 1.71.17 2.432.505.01 0 .074.027.194.078a5.576 5.576 0 0 1 .97.551c.19.134.362.287.513.457l-2.06 2.278a.94.94 0 0 0-.274-.172 2.21 2.21 0 0 0-.414-.134 5.983 5.983 0 0 0-.465-.088 2.495 2.495 0 0 0-1.325.129c-.296.11-.563.267-.802.472-.24.205-.437.458-.594.758-.156.3-.234.64-.234 1.022 0 .42.126.824.377 1.212.25.388.645.692 1.182.912.27.112.535.17.798.17.25 0 .514-.03.795-.086.28-.056.536-.147.765-.274a.998.998 0 0 0 .293-.194c.083-.08.15-.158.198-.23.03-.04.06-.08.085-.118a.717.717 0 0 0 .07-.132l-1.934-.256V5.474h4.9l.287 1.304c-.02.59-.13 1.144-.33 1.66-.2.514-.49 1.072-.87 1.672l-.946.945a5.167 5.167 0 0 1-1.58.788 6.094 6.094 0 0 1-1.76.26c-.63 0-1.244-.1-1.845-.3-.6-.2-1.157-.5-1.67-.902l-1.062-1.06a5.172 5.172 0 0 1-.893-1.64 5.896 5.896 0 0 1-.308-1.87zm12.824-4.694l6.343-.124.058 2.57-3.003.06-.03 1.5 3.15.015v2.76h-3.15v1.35l3.12-.09.067 2.396-6.526.154-.03-10.59zm7.925 3.223V1.276h7.998V4.86h-2.285v7.228h-3.07v-7.23h-2.643zm7.617 7.2l3.478-10.563h4.16L213.224 12l-3.135.03-.572-1.993h-3.274l-.645 2.066-3.12-.044zm11.725-.09l.286-10.65 3.868.06c.44.01.847.093 1.223.25.377.155.705.368.986.636.28.27.498.58.652.938.154.356.23.74.23 1.15 0 .42-.08.814-.237 1.182-.158.37-.39.668-.69.898.32.288.584.627.79 1.018.205.39.307.81.307 1.26 0 .45-.085.873-.256 1.274-.17.4-.4.75-.69 1.05a3.244 3.244 0 0 1-2.312.98l-4.153-.044zm9.024-10.693h3.434V9.18l3.347-.088.074 2.98-6.79.2-.065-10.995zm8.194.36l6.343-.125.06 2.57-3.004.06-.03 1.5 3.15.015v2.76h-3.15v1.35l3.12-.09.066 2.396-6.526.154-.03-10.59zm7.91 8.847l2.088-1.333a1.46 1.46 0 0 0 .388.503c.112.095.243.18.392.256.15.075.323.112.524.112a.78.78 0 0 0 .622-.293.968.968 0 0 0 .25-.638c0-.45-.367-.796-1.1-1.04a5.153 5.153 0 0 1-1.036-.487 4.635 4.635 0 0 1-.838-.663 7.12 7.12 0 0 1-.392-.42 2.597 2.597 0 0 1-.315-.46 2.373 2.373 0 0 1-.216-.57 3.24 3.24 0 0 1-.08-.77c0-.238.022-.49.066-.757.044-.266.127-.53.25-.79a3.658 3.658 0 0 1 1.244-1.47c.298-.21.64-.39 1.026-.542.385-.152.874-.228 1.464-.228.542 0 1.015.09 1.418.27.402.182.72.373.955.573l.564.614-1.735 1.663a.46.46 0 0 0-.173-.17 3.12 3.12 0 0 0-.286-.156 1.958 1.958 0 0 0-.322-.12 1.214 1.214 0 0 0-.32-.044c-.32 0-.564.085-.728.256a.824.824 0 0 0-.245.586c0 .342.175.625.526.85.088.058.198.11.33.157s.266.11.403.187c.14.078.3.164.475.256.175.093.36.193.556.3.45.23.784.476 1 .737.218.26.39.56.517.897.06.17.114.342.165.513.05.17.077.356.077.556 0 .392-.044.754-.13 1.09-.085.333-.2.64-.347.918-.15.278-.353.534-.604.766-.253.23-.53.43-.833.593-.302.163-.622.29-.96.38a3.838 3.838 0 0 1-1.673.078 4.717 4.717 0 0 1-1.274-.407 4.634 4.634 0 0 1-.51-.282 3.507 3.507 0 0 1-1.186-1.472z"/><path fill="#4F1F69" d="M94.96 19.08l6.957.197-.073 2.564-3.222-.087v2.322h3.193v2.373h-3.193v3.45H95.23l-.27-10.818zm8.62 11.176v-10.73h3.604v10.73h-3.604zm5.698-10.98h3.435v7.904l3.348-.088.074 2.98-6.79.2-.066-10.995zm8.13 0h3.435v7.904l3.347-.088.074 2.98-6.79.2-.066-10.995zm7.713 9.208l2.088-1.333c.02.05.06.122.125.217.063.095.15.19.263.286.112.095.243.18.392.256.15.075.324.112.524.112a.78.78 0 0 0 .622-.293.968.968 0 0 0 .25-.638c0-.45-.367-.796-1.1-1.04a5.153 5.153 0 0 1-1.036-.487 4.635 4.635 0 0 1-.838-.663 7.12 7.12 0 0 1-.392-.42 2.416 2.416 0 0 1-.531-1.03 3.19 3.19 0 0 1-.08-.77c0-.238.02-.49.065-.757.044-.266.127-.53.25-.79a3.658 3.658 0 0 1 1.244-1.47c.298-.21.64-.39 1.026-.542.385-.152.874-.228 1.465-.228.542 0 1.014.09 1.417.27.403.182.72.373.956.573l.564.614-1.736 1.663a.464.464 0 0 0-.172-.17 3.12 3.12 0 0 0-.286-.156 1.925 1.925 0 0 0-.322-.12 1.208 1.208 0 0 0-.32-.044c-.32 0-.564.085-.728.256a.824.824 0 0 0-.245.586c0 .342.176.625.527.85.088.058.198.11.33.157s.266.11.403.187c.14.078.3.164.476.256.177.093.362.193.557.3.45.23.783.476 1 .737.217.26.39.56.517.897.058.17.113.342.164.513.052.17.077.356.077.556 0 .392-.042.754-.128 1.09-.085.333-.2.64-.348.918a3.01 3.01 0 0 1-.605.766 4.224 4.224 0 0 1-1.79.973 3.864 3.864 0 0 1-1.674.078 4.717 4.717 0 0 1-1.274-.407 4.634 4.634 0 0 1-.51-.282 3.497 3.497 0 0 1-1.185-1.472zm12.042-4.036a5.762 5.762 0 0 1 .512-2.327c.18-.406.412-.797.692-1.173.28-.376.62-.71 1.02-1 .396-.29.86-.522 1.386-.695.528-.174 1.126-.26 1.795-.26.66 0 1.3.112 1.92.337a5.69 5.69 0 0 1 1.735 1.01l-1.963 3.046c-.2-.26-.444-.456-.73-.593a2.034 2.034 0 0 0-1.692-.04c-.256.11-.48.26-.67.45-.19.19-.343.414-.458.67a1.941 1.941 0 0 0-.172.802c0 .288.057.558.172.81.115.25.268.472.458.662a2.123 2.123 0 0 0 1.472.616c.332 0 .65-.078.952-.235a2.06 2.06 0 0 0 .755-.666l2.314 2.607-.6.6a5.65 5.65 0 0 1-4.753.808 5.675 5.675 0 0 1-1.443-.625l-1.787-1.73a5.856 5.856 0 0 1-.68-1.482 5.475 5.475 0 0 1-.235-1.592zm10.796-5.17h3.435v7.902l3.347-.088.073 2.98-6.79.2-.065-10.995zm7.456 10.78l3.48-10.56h4.16L166.157 30l-3.135.03-.57-1.993h-3.275l-.644 2.066-3.12-.044zm11.41-1.574l2.088-1.333c.02.05.06.122.125.217.063.095.15.19.263.286.113.095.243.18.392.256.15.075.324.112.524.112a.78.78 0 0 0 .622-.293.968.968 0 0 0 .25-.638c0-.45-.367-.796-1.1-1.04a5.153 5.153 0 0 1-1.036-.487 4.635 4.635 0 0 1-.838-.663 7.474 7.474 0 0 1-.392-.42 2.416 2.416 0 0 1-.531-1.03 3.24 3.24 0 0 1-.08-.77c0-.238.022-.49.066-.757.044-.266.127-.53.25-.79a3.658 3.658 0 0 1 1.244-1.47c.298-.21.64-.39 1.026-.542.386-.152.874-.228 1.465-.228.543 0 1.015.09 1.418.27.403.182.72.373.956.573l.564.614-1.736 1.663a.464.464 0 0 0-.172-.17 3.12 3.12 0 0 0-.286-.156 1.925 1.925 0 0 0-.322-.12 1.208 1.208 0 0 0-.32-.044c-.32 0-.564.085-.728.256a.824.824 0 0 0-.245.586c0 .342.175.625.526.85.088.058.198.11.33.157s.266.11.403.187c.14.078.3.164.475.256.176.093.36.193.557.3.45.23.782.476 1 .737.217.26.39.56.516.897.058.17.113.342.164.513.052.17.077.356.077.556a4.331 4.331 0 0 1-.477 2.008c-.15.278-.353.534-.604.766-.252.23-.53.43-.832.593-.303.163-.623.29-.96.38a3.857 3.857 0 0 1-1.673.078 4.952 4.952 0 0 1-1.785-.689 3.497 3.497 0 0 1-1.185-1.472zm8.175 0l2.086-1.333a1.46 1.46 0 0 0 .388.503c.112.095.243.18.392.256.15.075.323.112.524.112a.78.78 0 0 0 .622-.293.968.968 0 0 0 .25-.638c0-.45-.367-.796-1.1-1.04a5.153 5.153 0 0 1-1.036-.487 4.635 4.635 0 0 1-.838-.663 7.12 7.12 0 0 1-.392-.42 2.597 2.597 0 0 1-.315-.46 2.373 2.373 0 0 1-.215-.57 3.19 3.19 0 0 1-.08-.77c0-.238.02-.49.065-.757.044-.266.127-.53.25-.79a3.658 3.658 0 0 1 1.244-1.47c.298-.21.64-.39 1.026-.542.385-.152.874-.228 1.464-.228.542 0 1.015.09 1.418.27.403.182.72.373.956.573l.563.614-1.734 1.663a.464.464 0 0 0-.172-.17 3.12 3.12 0 0 0-.286-.156 1.958 1.958 0 0 0-.322-.12 1.208 1.208 0 0 0-.32-.044c-.32 0-.564.085-.728.256a.824.824 0 0 0-.245.586c0 .342.176.625.527.85.088.058.198.11.33.157s.266.11.403.187c.14.078.3.164.476.256.175.093.36.193.555.3.45.23.783.476 1 .737.217.26.39.56.516.897.06.17.115.342.166.513.052.17.077.356.077.556 0 .392-.043.754-.128 1.09-.085.333-.2.64-.348.918-.15.278-.353.534-.604.766a4.224 4.224 0 0 1-1.79.973 3.864 3.864 0 0 1-1.674.078 4.646 4.646 0 0 1-.672-.165 4.937 4.937 0 0 1-1.114-.524A3.497 3.497 0 0 1 175 28.483zm8.758 1.56V19.08h3.164c.572 0 1.108.11 1.608.33.5.22.938.517 1.31.893.375.376.67.814.89 1.314.22.5.33 1.034.33 1.6 0 .47-.07.913-.216 1.33a4.16 4.16 0 0 1-.604 1.146l2.124 4.08-3.07.454-1.456-2.96c-.142.03-.287.056-.436.078-.15.022-.304.033-.465.033v2.666h-3.18zm8.562-5.757c0-1.07.29-2.07.872-3.003l1.714-1.706c.44-.26.898-.452 1.377-.58.478-.126.964-.19 1.457-.19.86 0 1.637.163 2.333.488a5.521 5.521 0 0 1 1.776 1.29c.487.533.865 1.14 1.13 1.815.267.677.4 1.36.4 2.048 0 .63-.1 1.245-.3 1.846-.2.6-.51 1.162-.93 1.685l-.93.907a5.41 5.41 0 0 1-1.568.783 5.647 5.647 0 0 1-3.479-.036 5.536 5.536 0 0 1-1.64-.88l-1.04-1.032a5.607 5.607 0 0 1-1.173-3.435zm3.377.22c0 .307.06.59.18.846s.276.477.472.663c.194.185.417.328.67.428.25.1.505.15.764.15.37 0 .725-.1 1.062-.3l.74-.732c.2-.342.3-.7.3-1.07 0-.278-.057-.544-.172-.798a2.144 2.144 0 0 0-.458-.66 2.159 2.159 0 0 0-1.472-.607c-.288 0-.558.055-.81.165a2.14 2.14 0 0 0-1.112 1.116 1.99 1.99 0 0 0-.165.8zm8.906-.22c0-1.07.29-2.07.872-3.003l1.713-1.706a5.497 5.497 0 0 1 2.835-.77c.86 0 1.637.163 2.333.488a5.521 5.521 0 0 1 1.776 1.29c.488.533.865 1.14 1.13 1.815.268.677.4 1.36.4 2.048 0 .63-.1 1.245-.3 1.846-.2.6-.51 1.162-.93 1.685l-.93.907c-.488.35-1.01.613-1.567.783a5.647 5.647 0 0 1-3.479-.036 5.536 5.536 0 0 1-1.64-.88l-1.04-1.032a5.537 5.537 0 0 1-.88-1.64 5.653 5.653 0 0 1-.293-1.795zm3.376.22c0 .307.06.59.18.846s.276.477.47.663a2.109 2.109 0 0 0 1.437.578c.37 0 .725-.1 1.062-.3l.74-.732c.2-.342.3-.7.3-1.07 0-.278-.058-.544-.173-.798a2.161 2.161 0 0 0-.458-.66 2.182 2.182 0 0 0-.67-.442 2.022 2.022 0 0 0-.803-.165c-.288 0-.558.055-.81.165a2.14 2.14 0 0 0-1.112 1.116 1.99 1.99 0 0 0-.166.8zm9.162 5.66l.47-10.758 4.994.028.974 4.22 1.018-4.132 4.636-.088 1.128 10.49-3.26.028-.63-7.47-1.618 7.66h-2.563l-1.684-7.858-.344 7.924-3.12-.044zm14.34-1.683l2.088-1.333c.02.05.06.122.125.217.063.095.15.19.263.286.113.095.243.18.392.256.15.075.324.112.524.112.25 0 .457-.097.623-.293a.968.968 0 0 0 .25-.638c0-.45-.368-.796-1.1-1.04a5.153 5.153 0 0 1-1.036-.487 4.635 4.635 0 0 1-.838-.663 7.474 7.474 0 0 1-.392-.42 2.416 2.416 0 0 1-.531-1.03 3.14 3.14 0 0 1-.08-.77c0-.238.02-.49.064-.757.044-.266.127-.53.25-.79.122-.262.28-.517.48-.766.197-.25.452-.485.765-.704.296-.21.638-.39 1.024-.542.386-.152.874-.228 1.465-.228.54 0 1.013.09 1.416.27.403.182.722.373.956.573l.564.614-1.736 1.663a.464.464 0 0 0-.172-.17 3.12 3.12 0 0 0-.286-.156 1.925 1.925 0 0 0-.322-.12 1.208 1.208 0 0 0-.32-.044c-.32 0-.564.085-.727.256a.821.821 0 0 0-.246.586c0 .342.176.625.528.85.087.058.197.11.33.157.13.047.265.11.402.187.142.078.3.164.476.256.176.093.36.193.557.3.45.23.782.476 1 .737.217.26.39.56.516.897.058.17.113.342.165.513.052.17.078.356.078.556a4.331 4.331 0 0 1-.477 2.008c-.15.278-.35.534-.603.766-.25.23-.528.43-.83.593-.304.163-.624.29-.96.38a3.858 3.858 0 0 1-1.674.078 4.952 4.952 0 0 1-1.785-.689 3.497 3.497 0 0 1-1.185-1.472z"/><path fill="#FF5800" d="M94.842 48.212l.3-10.935h3.04c.752 0 1.46.142 2.124.425a5.48 5.48 0 0 1 1.74 1.168 5.524 5.524 0 0 1 1.172 1.744c.285.666.428 1.373.428 2.12 0 1.07-.29 2.07-.872 3.003l-1.706 1.706c-.44.26-.9.452-1.38.58-.482.126-.966.19-1.455.19h-3.39zm3.37-3.48c.278 0 .538-.05.78-.156a2.034 2.034 0 0 0 1.061-1.062c.105-.242.158-.502.158-.78 0-.27-.052-.523-.157-.762a2.02 2.02 0 0 0-.428-.63 2.132 2.132 0 0 0-.637-.436 1.868 1.868 0 0 0-.777-.164v3.99zm6.628 3.312V37.08h3.164c.57 0 1.107.11 1.608.33a4.217 4.217 0 0 1 2.2 2.207c.22.5.33 1.034.33 1.6 0 .47-.072.913-.216 1.33a4.16 4.16 0 0 1-.604 1.146l2.124 4.08-3.07.454-1.457-2.96c-.142.03-.287.056-.436.078-.15.022-.304.033-.465.033v2.666h-3.18zm9.595.212v-10.73h3.603v10.73h-3.603zm5.698-10.98h3.435v7.904l3.347-.088.073 2.98-6.79.2-.065-10.995zm8.13 0h3.435v7.904l3.347-.088.073 2.98-6.79.2-.065-10.995zm7.712 9.208l2.087-1.333c.02.05.062.122.125.217s.15.19.264.286c.113.095.244.18.393.256.148.075.323.112.523.112.25 0 .457-.097.623-.293a.97.97 0 0 0 .248-.638c0-.45-.366-.796-1.1-1.04a5.144 5.144 0 0 1-1.035-.487 4.72 4.72 0 0 1-.84-.663c-.14-.14-.27-.282-.39-.42a2.416 2.416 0 0 1-.532-1.03 3.294 3.294 0 0 1-.08-.77c0-.238.023-.49.067-.757.044-.266.127-.53.25-.79a3.596 3.596 0 0 1 1.244-1.47c.3-.21.64-.39 1.026-.542.386-.152.874-.228 1.465-.228.543 0 1.015.09 1.418.27.403.182.722.373.956.573l.564.614-1.736 1.663a.457.457 0 0 0-.172-.17 2.992 2.992 0 0 0-.286-.156 1.925 1.925 0 0 0-.322-.12 1.205 1.205 0 0 0-.318-.044c-.323 0-.566.085-.73.256a.824.824 0 0 0-.245.586c0 .342.175.625.527.85.088.058.198.11.33.157.13.047.265.11.402.187.14.078.3.164.475.256.176.093.362.193.557.3.45.23.782.476 1 .737.217.26.39.56.516.897.06.17.114.342.165.513.05.17.077.356.077.556 0 .392-.043.754-.128 1.09-.086.333-.202.64-.348.918a2.987 2.987 0 0 1-.605.766c-.252.23-.53.43-.832.593-.303.163-.622.29-.96.38a3.838 3.838 0 0 1-1.673.078 4.651 4.651 0 0 1-.67-.165 4.937 4.937 0 0 1-1.112-.524 3.486 3.486 0 0 1-1.187-1.472zm12.495-8.987h3.18l.63 7.354 1.632-7.353h2.988l1.56 6.636.616-6.87 2.863.146-1.063 10.53-4.306-.043-1.288-5.537-1.01 5.457-4.71.05-1.092-10.37zm14.86.14l6.344-.125.058 2.57-3.003.06-.03 1.5 3.15.015v2.76h-3.15v1.35l3.12-.09.066 2.396-6.526.154-.03-10.59zm8.63-.36h3.434v7.903l3.347-.088.074 2.98-6.79.2-.065-10.995zm8.13 0h3.434v7.903l3.347-.088.074 2.98-6.79.2-.065-10.995zm7.71 9.207l2.09-1.333c.018.05.06.122.123.217.064.095.152.19.264.286.112.095.243.18.392.256.148.075.322.112.522.112.25 0 .457-.097.623-.293a.968.968 0 0 0 .25-.638c0-.45-.367-.796-1.1-1.04a5.153 5.153 0 0 1-1.036-.487 4.72 4.72 0 0 1-.84-.663 8.299 8.299 0 0 1-.392-.42 2.592 2.592 0 0 1-.314-.46 2.416 2.416 0 0 1-.217-.57 3.24 3.24 0 0 1-.08-.77c0-.238.022-.49.066-.757.044-.266.127-.53.25-.79a3.658 3.658 0 0 1 1.244-1.47c.298-.21.64-.39 1.025-.542.386-.152.874-.228 1.465-.228.542 0 1.015.09 1.417.27.403.182.722.373.956.573l.564.614-1.736 1.663a.457.457 0 0 0-.172-.17 3.096 3.096 0 0 0-.285-.156 1.893 1.893 0 0 0-.322-.12 1.205 1.205 0 0 0-.318-.044c-.323 0-.565.085-.73.256a.823.823 0 0 0-.244.586c0 .342.175.625.527.85.088.058.198.11.33.157.13.047.266.11.402.187.142.078.3.164.476.256.177.093.363.193.558.3.45.23.783.476 1 .737.217.26.39.56.516.897.06.17.114.342.165.513.05.17.076.356.076.556 0 .392-.043.754-.128 1.09-.086.333-.202.64-.348.918a3.005 3.005 0 0 1-.604.766c-.252.23-.53.43-.832.593-.302.163-.622.29-.96.38a3.838 3.838 0 0 1-1.675.078 4.75 4.75 0 0 1-1.273-.407 4.634 4.634 0 0 1-.51-.282 3.492 3.492 0 0 1-1.186-1.472z"/><path fill="#FB0" d="M95.113 55.636l6.343-.124.06 2.57-3.004.06-.03 1.5 3.15.015v2.76h-3.15v1.35l3.12-.09.066 2.396-6.525.154-.03-10.59zm8.6 10.532l.468-10.76 4.996.03.974 4.22 1.018-4.132 4.636-.088 1.128 10.49-3.26.028-.63-7.47-1.618 7.66h-2.563l-1.684-7.858-.344 7.924-3.12-.044zm15.072-.14V55.066h3.172c.58 0 1.125.11 1.633.33a4.281 4.281 0 0 1 2.248 2.252c.22.51.33 1.053.33 1.63 0 .59-.11 1.14-.33 1.65-.22.51-.52.96-.9 1.345-.38.386-.83.688-1.344.908-.516.22-1.06.33-1.637.33v2.52h-3.172zm3.172-5.31c.21 0 .406-.04.59-.12.182-.08.342-.188.48-.322.136-.134.243-.294.32-.48.08-.185.118-.383.118-.593a1.45 1.45 0 0 0-.439-1.054 1.703 1.703 0 0 0-.48-.333 1.385 1.385 0 0 0-.59-.128v3.032zm5.148-.43c0-1.07.29-2.07.872-3.004l1.714-1.706c.44-.26.9-.452 1.378-.58.478-.126.964-.19 1.457-.19.86 0 1.637.163 2.333.488a5.521 5.521 0 0 1 1.776 1.29 5.8 5.8 0 0 1 1.132 1.815c.266.677.4 1.36.4 2.048 0 .63-.1 1.245-.3 1.846-.2.6-.512 1.162-.93 1.685l-.932.907c-.488.35-1.01.613-1.567.783a5.647 5.647 0 0 1-3.479-.036 5.536 5.536 0 0 1-1.64-.88l-1.04-1.032a5.607 5.607 0 0 1-1.173-3.435zm3.377.22c0 .306.06.588.18.845.12.256.276.477.472.663.195.185.418.328.67.428.25.1.507.15.765.15.37 0 .724-.1 1.06-.3l.74-.732c.2-.342.3-.7.3-1.07 0-.278-.056-.544-.17-.798a2.161 2.161 0 0 0-.458-.66 2.17 2.17 0 0 0-.67-.442 2.018 2.018 0 0 0-.803-.165c-.29 0-.56.055-.81.165a2.14 2.14 0 0 0-1.113 1.116 1.99 1.99 0 0 0-.165.8zm8.6-5.01h3.177l.63 7.353 1.632-7.353h2.99l1.56 6.636.614-6.87 2.864.146-1.062 10.53-4.307-.043-1.288-5.537-1.01 5.457-4.71.05-1.09-10.37zm14.86.138l6.342-.124.06 2.57-3.004.06-.03 1.5 3.15.015v2.76h-3.15v1.35l3.12-.09.067 2.396-6.526.154-.03-10.59zm8.496 10.408V55.08h3.164c.57 0 1.107.11 1.607.33a4.217 4.217 0 0 1 2.2 2.207c.22.5.33 1.034.33 1.6 0 .47-.072.913-.216 1.33-.144.418-.346.8-.605 1.146l2.123 4.08-3.068.454-1.458-2.96c-.142.03-.287.056-.436.078a3.158 3.158 0 0 1-.464.033v2.666h-3.18zm9.023-1.56l2.088-1.333c.02.05.06.122.125.217.063.095.15.19.264.286.112.095.242.18.39.256.15.075.325.112.525.112.25 0 .457-.097.623-.293a.968.968 0 0 0 .25-.638c0-.45-.368-.796-1.1-1.04a5.153 5.153 0 0 1-1.036-.487 4.72 4.72 0 0 1-.84-.663 7.474 7.474 0 0 1-.392-.42 2.416 2.416 0 0 1-.531-1.03 3.19 3.19 0 0 1-.08-.77c0-.238.022-.49.065-.757.044-.266.127-.53.25-.79.122-.262.282-.517.48-.766.197-.25.452-.485.765-.704.297-.21.64-.39 1.025-.542.386-.152.874-.228 1.465-.228.542 0 1.014.09 1.417.27.403.182.722.373.956.573l.564.614-1.736 1.663a.464.464 0 0 0-.172-.17 3.12 3.12 0 0 0-.286-.156 1.925 1.925 0 0 0-.322-.12 1.208 1.208 0 0 0-.32-.044c-.32 0-.564.085-.727.256a.824.824 0 0 0-.245.586c0 .342.176.625.528.85.088.058.197.11.33.157.13.047.265.11.402.187.142.078.3.164.476.256.177.093.362.193.558.3.45.23.782.476 1 .737.217.26.39.56.516.897.058.17.113.342.165.513.05.17.076.356.076.556a4.331 4.331 0 0 1-.476 2.008 2.987 2.987 0 0 1-.605.766c-.25.23-.528.43-.83.593-.304.163-.624.29-.96.38a3.858 3.858 0 0 1-1.674.078 4.75 4.75 0 0 1-1.274-.407 4.826 4.826 0 0 1-.51-.282 3.497 3.497 0 0 1-1.185-1.472zm12.496-8.987h3.18l.63 7.354 1.632-7.353h2.988l1.56 6.636.616-6.87 2.863.146-1.062 10.53-4.306-.043-1.29-5.537-1.01 5.457-4.71.05-1.09-10.37zm14.21 4.79c0-1.07.29-2.07.87-3.003l1.714-1.706a5.497 5.497 0 0 1 2.835-.77c.86 0 1.637.163 2.333.488a5.521 5.521 0 0 1 1.776 1.29c.488.533.865 1.14 1.13 1.815.268.677.4 1.36.4 2.048 0 .63-.1 1.245-.3 1.846-.2.6-.51 1.162-.93 1.685l-.93.907c-.488.35-1.01.613-1.567.783a5.647 5.647 0 0 1-3.479-.036 5.536 5.536 0 0 1-1.64-.88l-1.04-1.032a5.537 5.537 0 0 1-.88-1.64 5.653 5.653 0 0 1-.293-1.795zm3.376.22c0 .307.06.59.18.846s.276.477.47.663a2.109 2.109 0 0 0 1.437.578c.37 0 .724-.1 1.06-.3l.74-.732c.2-.342.3-.7.3-1.07 0-.278-.056-.544-.17-.798a2.15 2.15 0 0 0-1.13-1.102 2.004 2.004 0 0 0-.8-.165c-.29 0-.56.055-.81.165a2.138 2.138 0 0 0-1.113 1.116 1.99 1.99 0 0 0-.165.8zm9.162 5.66l.47-10.758 4.994.028.974 4.22 1.018-4.132 4.636-.088 1.128 10.49-3.26.028-.63-7.47-1.617 7.66h-2.564l-1.685-7.858-.344 7.924-3.12-.044zm15.125-10.53l6.34-.125.06 2.57-3.003.06-.03 1.5 3.15.015v2.76h-3.15v1.35l3.12-.09.067 2.396-6.526.154-.03-10.59zm8.465 10.422V55.364h3.348l3.252 7.215.03-7.002 3.192-.066-.132 10.385-4.306.103-2.733-6.108v6.167h-2.652z"/><path fill="#3F9E11" d="M94.96 73.08l6.957.197-.073 2.564-3.222-.087v2.322h3.193v2.373h-3.193v3.45H95.23l-.27-10.818zm8.62 11.176v-10.73h3.604v10.73h-3.604zm5.31-5.925c0-.74.14-1.452.42-2.13a5.74 5.74 0 0 1 1.16-1.79c.49-.516 1.07-.93 1.738-1.24a5.15 5.15 0 0 1 2.19-.464c.898 0 1.71.17 2.432.505.01 0 .074.027.194.078.12.052.263.122.432.213.168.09.348.203.538.338.19.134.36.287.513.457l-2.058 2.278a.955.955 0 0 0-.276-.172 2.21 2.21 0 0 0-.414-.134 5.983 5.983 0 0 0-.465-.088 2.505 2.505 0 0 0-1.326.129c-.296.11-.563.267-.803.472-.24.205-.437.458-.593.758-.156.3-.234.64-.234 1.022 0 .42.126.824.377 1.212.252.388.646.692 1.183.912.268.112.535.17.798.17.25 0 .514-.03.795-.086.28-.056.536-.147.765-.274a.998.998 0 0 0 .293-.194c.084-.08.15-.158.2-.23l.083-.118a.717.717 0 0 0 .07-.132l-1.934-.256v-2.088h4.9l.285 1.304c-.02.59-.13 1.144-.33 1.66-.2.514-.49 1.072-.87 1.672l-.946.945a5.194 5.194 0 0 1-1.583.788 6.08 6.08 0 0 1-1.758.26c-.63 0-1.246-.1-1.847-.3-.6-.2-1.157-.5-1.67-.902l-1.062-1.06a5.17 5.17 0 0 1-.892-1.64 5.896 5.896 0 0 1-.308-1.87zm12.76 5.73V73.196h2.833v3.406h3.45v-3.465h3.157v10.92h-3.157V80.7h-3.45v3.36h-2.834zm10.824-7.2v-3.583h7.998v3.582h-2.285v7.228h-3.07v-7.23h-2.643zm8.775 5.624l2.086-1.333a1.46 1.46 0 0 0 .388.503c.112.095.243.18.392.256.15.075.323.112.524.112a.78.78 0 0 0 .622-.293.968.968 0 0 0 .25-.638c0-.45-.367-.796-1.1-1.04a5.153 5.153 0 0 1-1.036-.487 4.635 4.635 0 0 1-.838-.663 7.12 7.12 0 0 1-.392-.42 2.597 2.597 0 0 1-.315-.46 2.373 2.373 0 0 1-.215-.57 3.19 3.19 0 0 1-.08-.77c0-.238.02-.49.065-.757.044-.266.127-.53.25-.79a3.658 3.658 0 0 1 1.244-1.47c.298-.21.64-.39 1.026-.542.385-.152.874-.228 1.464-.228.542 0 1.015.09 1.418.27.403.182.72.373.956.573l.563.614-1.734 1.663a.464.464 0 0 0-.172-.17 3.12 3.12 0 0 0-.286-.156 1.958 1.958 0 0 0-.322-.12 1.208 1.208 0 0 0-.32-.044c-.32 0-.564.085-.728.256a.824.824 0 0 0-.245.586c0 .342.176.625.527.85.088.058.198.11.33.157s.266.11.403.187c.14.078.3.164.476.256.175.093.36.193.555.3.45.23.783.476 1 .737.217.26.39.56.516.897.06.17.115.342.166.513.052.17.077.356.077.556 0 .392-.043.754-.128 1.09-.085.333-.2.64-.348.918-.15.278-.353.534-.604.766a4.224 4.224 0 0 1-1.79.973 3.864 3.864 0 0 1-1.674.078 4.646 4.646 0 0 1-.672-.165 4.937 4.937 0 0 1-1.114-.524 3.497 3.497 0 0 1-1.185-1.472zm12.655 1.545V73.064h3.17c.582 0 1.127.11 1.634.33a4.293 4.293 0 0 1 2.248 2.252c.22.51.33 1.053.33 1.63 0 .59-.11 1.14-.33 1.65-.22.51-.52.96-.9 1.345a4.18 4.18 0 0 1-1.345.908c-.515.22-1.06.33-1.637.33v2.52h-3.17zm3.17-5.31c.21 0 .408-.04.59-.122.184-.08.344-.188.48-.322a1.512 1.512 0 0 0 .44-1.073 1.45 1.45 0 0 0-.439-1.054 1.703 1.703 0 0 0-.48-.333 1.385 1.385 0 0 0-.59-.128v3.032zm5.15-.433c0-1.07.29-2.07.872-3.003l1.714-1.706a5.497 5.497 0 0 1 2.835-.77c.86 0 1.637.163 2.333.488a5.521 5.521 0 0 1 1.776 1.29c.488.533.865 1.14 1.13 1.815.268.677.4 1.36.4 2.048 0 .63-.1 1.245-.3 1.846-.2.6-.51 1.162-.93 1.685l-.93.907c-.488.35-1.01.613-1.567.783a5.647 5.647 0 0 1-3.479-.036 5.536 5.536 0 0 1-1.64-.88l-1.04-1.032a5.537 5.537 0 0 1-.88-1.64 5.653 5.653 0 0 1-.293-1.795zm3.377.22c0 .307.06.59.18.846s.276.477.47.663a2.109 2.109 0 0 0 1.437.578c.37 0 .724-.1 1.06-.3l.74-.732c.2-.342.3-.7.3-1.07 0-.278-.056-.544-.17-.798a2.15 2.15 0 0 0-1.13-1.102 2.004 2.004 0 0 0-.8-.165c-.29 0-.56.055-.81.165a2.138 2.138 0 0 0-1.113 1.116 1.99 1.99 0 0 0-.165.8zm7.844-5.31h3.618l2.03 6.496 2.006-6.342h3.046l-3.618 10.68-3.464.153-3.618-10.986zm11.93.44l6.344-.125.058 2.57-3.003.06-.03 1.5 3.15.015v2.76h-3.15v1.35l3.12-.09.067 2.396-6.526.154-.03-10.59zm8.497 10.407V73.08h3.164c.57 0 1.107.11 1.608.33a4.217 4.217 0 0 1 2.2 2.207c.22.5.33 1.034.33 1.6 0 .47-.072.913-.216 1.33a4.19 4.19 0 0 1-.605 1.146l2.124 4.08-3.07.454-1.457-2.96c-.142.03-.287.056-.436.078-.15.022-.304.033-.465.033v2.666h-3.18zm8.29-7.185v-3.583h8v3.582h-2.286v7.228h-3.07v-7.23h-2.643zm8.65-3.524l3.136-.3 2.174 3.764 2.864-3.838 3.288.6-4.35 5.86v4.68h-3.736v-4.81l-3.376-5.956z"/></g></svg>