<svg width="169" height="44" viewBox="0 0 169 44" xmlns="http://www.w3.org/2000/svg"><path d="M18.476 1.888H16.58l-2.832 14.208L10.46 1.912H8.684L5.348 16.12 2.54 1.888H.668L4.22 19h2.232l3.12-13.2L12.668 19H14.9l3.576-17.112zM32.06 19v-1.8h-7.416v-6.336h6.864V9.04h-6.864V3.712h7.416V1.888h-9.24V19h9.24zM60.668 1.912h-3.24L55.34 12.904 52.748 1.936h-2.28l-2.592 10.968-2.088-10.992h-3.216L46.124 19h2.952l2.568-10.152L54.14 19h2.976l3.552-17.088zm14.016 12.36c0 1.632-1.08 4.944-5.16 4.944-4.032 0-5.136-3.336-5.136-4.968V6.64c0-1.584 1.008-4.848 5.16-4.848 3.936 0 5.136 3.264 5.136 4.872v7.608zm-3.12-.024v-7.56c0-1.584-1.392-1.824-2.016-1.824-.672 0-2.04.24-2.04 1.824v7.56c0 1.608 1.368 1.896 2.04 1.896.624 0 2.016-.288 2.016-1.896zM90.068 19V1.912h-3.12V11.8l-4.152-9.888H79.7V19h3.12V9.304L86.924 19h3.144zM96.74 6.4L99.38.928h-3.048L94.172 6.4h2.568zm16.368-1.392V1.912h-10.752v3.096h3.816V19h3.12V5.008h3.816zM133.556 19v-1.8h-7.392V1.888h-1.824V19h9.216zm4.08-17.112V19h1.848V1.888h-1.848zm15.912 0l-3.768 15.36h-.312l-3.816-15.36h-1.824L148.124 19h3l4.248-17.112h-1.824zM168.956 19v-1.8h-7.416v-6.336h6.864V9.04h-6.864V3.712h7.416V1.888h-9.24V19h9.24zm-145.92 6.888H21.14l-2.832 14.208-3.288-14.184h-1.776L9.908 40.12 7.1 25.888H5.228L8.78 43h2.232l3.12-13.2L17.228 43h2.232l3.576-17.112zm4.344 0V43h1.848V25.888H27.38zm16.392 1.848v-1.848h-10.2v1.848h4.176V43h1.848V27.736h4.176zM58.124 43V25.888h-1.848v7.224h-6.312v-7.224h-1.848V43h1.848v-8.064h6.312V43h1.848zm22.392-11.328c0 1.512-.744 4.584-4.512 4.584h-3.312V43h-1.848V25.888h5.064c3.864 0 4.608 3.072 4.608 4.536v1.248zm-1.824-.024v-1.176c0-2.424-1.824-2.76-2.832-2.76h-3.168v6.72h3.216c1.008 0 2.784-.36 2.784-2.784zm16.056 6.984c0 1.512-1.008 4.584-4.848 4.584-3.768 0-4.824-3.096-4.824-4.608v-8.352c0-1.464.984-4.512 4.848-4.512 3.744 0 4.824 3.048 4.824 4.536v8.352zm-1.848-.024v-8.304c0-2.4-2.016-2.76-2.976-2.76-.984 0-3.024.36-3.024 2.76v8.304c0 2.424 2.04 2.784 3.024 2.784.96 0 2.976-.36 2.976-2.784zm15.672-12.72l-3.768 15.36h-.312l-3.816-15.36h-1.824L103.148 43h3l4.248-17.112h-1.824zM123.98 43v-1.8h-7.416v-6.336h6.864V33.04h-6.864v-5.328h7.416v-1.824h-9.24V43h9.24zm15.024 0h-2.088l-3.36-7.224h-2.808V43H128.9V25.888h5.064c3.864 0 4.632 3.048 4.632 4.512v.816c0 1.272-.576 3.648-3.096 4.392L139.004 43zm-2.256-11.808v-.72c0-2.424-1.824-2.76-2.832-2.76h-3.168v6.264h3.216c1.008 0 2.784-.384 2.784-2.784zm16.128-3.456v-1.848h-10.2v1.848h4.176V43h1.848V27.736h4.176zm13.896-1.848h-1.992l-3.432 8.592-3.432-8.592h-1.992l4.488 10.896V43h1.848v-6.168l4.512-10.944z" fill="#3F9E11" fill-rule="evenodd"/></svg>
