<svg width="40" height="40" viewBox="0 0 40 40" xmlns="http://www.w3.org/2000/svg"><path d="M22.06 7c-2.24 0-4.055.745-5.224 1.303-1.633.78-6.83 3.782-7.533 10.516L5 19.15l6.697 8.28 7.524-8.206-4.74-.89c.596-1.98 2.39-6.238 6.873-5.998 5.92.337 7.954 4.623 7.845 7.246-.065 1.58-1.556 7.96-7.222 7.96-1.497 0-1.53-.388-3.377-1.247l-.655-.302-3.57 3.78 1.073 1.087c2.862 1.37 4.097 1.52 6.63 1.52 4.792 0 7.695-2.513 8.65-3.34 1.288-1.116 3.84-5.266 3.9-9.802.04-3.192-1.172-6.005-3.505-8.135C28.143 8.38 25.093 7 22.063 7z" fill="#545454" fill-rule="evenodd"/></svg>
