<svg xmlns="http://www.w3.org/2000/svg" width="40" height="40" viewBox="0 0 40 40"><path fill="#FFF" fill-rule="evenodd" d="M16.547 13.262L31 13.837l-1.807 9.21-13.369-.192-2.89-10.36h-2.71c-1.447 0-1.807-2.495 0-2.495 1.805 0 4.696.383 4.696.383l1.627 2.879zm1.146 11.27c1.16 0 1.818.405 2.129 1.593.424 1.619-.968 2.875-2.13 2.875-1.161 0-2.105-.652-2.105-1.886 0-1.232.944-2.581 2.106-2.581zm8.954.454c.923.75 1.3 1.877.593 2.856-.705.98-2.226 1.442-3.148.692-.923-.75-1.213-1.493-.78-2.639.59-1.558 2.413-1.659 3.335-.909z"/></svg>