<svg width="40" height="40" viewBox="0 0 40 40" xmlns="http://www.w3.org/2000/svg"><g fill="#545454" fill-rule="evenodd"><path d="M15.592 29.39h10.013c.15-2.64 2.32-4.74 4.99-4.784 2.69.01 4.88 2.13 4.997 4.785h1.474c.477.01.936-.18 1.273-.52.33-.33.52-.79.52-1.27v-7.03c0-.6-.17-1.18-.5-1.69l-5.28-8.3c-.36-.56-.98-.9-1.65-.9h-6.99c-.334 0-.65.13-.887.37-.235.237-.367.55-.367.887v15.06c0 .46-.378.837-.84.837-.466 0-.84-.38-.84-.84V7.92c0-.996-.81-1.803-1.808-1.803H2.92c-.995 0-1.805.802-1.805 1.8V27.59c0 .476.188.934.525 1.27.34.337.796.526 1.273.525h2.692c.15-2.64 2.32-4.74 4.99-4.785 2.69.01 4.88 2.13 4.997 4.785zm16.615-16.57l3.745 5.862c.087.136.093.31.016.45-.078.142-.227.23-.39.232H25.46c-.12 0-.234-.048-.317-.133-.082-.08-.13-.2-.127-.32v-5.85c0-.24.2-.44.446-.44h6.374c.152 0 .292.08.373.21z" fill-rule="nonzero"/><path d="M10.598 33.606c-2.195-.036-3.965-1.804-4-3.997 0-2.21 1.79-4 4-4.01 2.196.03 3.968 1.81 4 4-.01 2.2-1.794 3.99-4 3.99zm0-2c1.102-.004 1.995-.895 2-1.998-.016-1.097-.903-1.984-2-2.002-1.106.004-2 .9-2 2.002.017 1.096.902 1.98 2 1.998zm20 2c-2.195-.036-3.965-1.804-4-3.997 0-2.21 1.79-4 4-4.01 2.196.03 3.968 1.81 4 4-.01 2.2-1.794 3.99-4 3.99zm0-2c1.102-.004 1.995-.895 2-1.998-.016-1.097-.903-1.984-2-2.002-1.106.004-2 .9-2 2.002.017 1.096.902 1.98 2 1.998z"/></g></svg>
