<svg xmlns="http://www.w3.org/2000/svg" width="48" height="64" xmlns:xlink="http://www.w3.org/1999/xlink"><defs><path id="b" d="M18.55 0C8.294 0 0 8.294 0 18.55 0 32.462 18.55 53 18.55 53S37.1 32.462 37.1 18.55C37.1 8.294 28.805 0 18.55 0z"/><filter id="a" width="188.9%" height="162.3%" x="-44.5%" y="-19.8%" filterUnits="objectBoundingBox"><feOffset dy="3" in="SourceAlpha" result="shadowOffsetOuter1"/><feGaussianBlur stdDeviation="3" in="shadowOffsetOuter1" result="shadowBlurOuter1"/><feColorMatrix values="0 0 0 0 0 0 0 0 0 0 0 0 0 0 0 0 0 0 0.16 0" in="shadowBlurOuter1" result="shadowMatrixOuter1"/><feOffset dy="3" in="SourceAlpha" result="shadowOffsetOuter2"/><feGaussianBlur stdDeviation="3" in="shadowOffsetOuter2" result="shadowBlurOuter2"/><feColorMatrix values="0 0 0 0 0 0 0 0 0 0 0 0 0 0 0 0 0 0 0.23 0" in="shadowBlurOuter2" result="shadowMatrixOuter2"/><feMerge><feMergeNode in="shadowMatrixOuter1"/><feMergeNode in="shadowMatrixOuter2"/></feMerge></filter></defs><g fill="none" fill-rule="evenodd"><g fill-rule="nonzero" transform="translate(5 2)"><use fill="#000" filter="url(#a)" xlink:href="#b"/><use fill="#008A00" fill-rule="evenodd" xlink:href="#b"/></g><path d="M11 10h24v24H11"/><path fill="#FFF" fill-rule="nonzero" d="M31 14H15v2h16v-2zm1 10v-2l-1-5H15l-1 5v2h1v6h10v-6h4v6h2v-6h1zm-9 4h-6v-4h6v4z"/></g></svg>
