<svg xmlns="http://www.w3.org/2000/svg" width="48" height="64" xmlns:xlink="http://www.w3.org/1999/xlink"><defs><path id="b" d="M18.55 0C8.294 0 0 8.294 0 18.55 0 32.462 18.55 53 18.55 53S37.1 32.462 37.1 18.55C37.1 8.294 28.805 0 18.55 0z"/><filter id="a" width="188.9%" height="162.3%" x="-44.5%" y="-19.8%" filterUnits="objectBoundingBox"><feOffset dy="3" in="SourceAlpha" result="shadowOffsetOuter1"/><feGaussianBlur stdDeviation="3" in="shadowOffsetOuter1" result="shadowBlurOuter1"/><feColorMatrix values="0 0 0 0 0 0 0 0 0 0 0 0 0 0 0 0 0 0 0.16 0" in="shadowBlurOuter1" result="shadowMatrixOuter1"/><feOffset dy="3" in="SourceAlpha" result="shadowOffsetOuter2"/><feGaussianBlur stdDeviation="3" in="shadowOffsetOuter2" result="shadowBlurOuter2"/><feColorMatrix values="0 0 0 0 0 0 0 0 0 0 0 0 0 0 0 0 0 0 0.23 0" in="shadowBlurOuter2" result="shadowMatrixOuter2"/><feMerge><feMergeNode in="shadowMatrixOuter1"/><feMergeNode in="shadowMatrixOuter2"/></feMerge></filter></defs><g fill="none" transform="translate(5 2)"><use fill="#000" filter="url(#a)" xlink:href="#b"/><use fill="#0088E1" fill-rule="evenodd" xlink:href="#b"/><path fill="#FFF" d="M26.2 14.79h-1.962c.1-.294.162-.616.162-.948C24.4 12.27 23.194 11 21.7 11c-.945 0-1.764.512-2.25 1.28l-.45.634-.45-.645C18.064 11.51 17.245 11 16.3 11c-1.494 0-2.7 1.27-2.7 2.842 0 .332.063.654.162.947H11.8c-1 0-1.79.843-1.79 1.894L10 27.104c0 1.053.8 1.896 1.8 1.896h14.4c1 0 1.8-.843 1.8-1.895v-10.42c0-1.052-.8-1.896-1.8-1.896zm-4.5-1.895c.495 0 .9.426.9.947 0 .52-.405.947-.9.947s-.9-.427-.9-.948c0-.52.405-.947.9-.947zm-5.4 0c.495 0 .9.426.9.947 0 .52-.405.947-.9.947s-.9-.427-.9-.948c0-.52.405-.947.9-.947zm9.9 14.21H11.8V25.21h14.4v1.895zm0-4.737H11.8v-5.684h4.572l-1.872 2.68 1.458 1.11 2.142-3.07.9-1.288.9 1.288 2.142 3.07 1.458-1.11-1.872-2.68H26.2v5.684z"/></g></svg>
